<svg width="200" height="60" viewBox="0 0 200 60" fill="none" xmlns="http://www.w3.org/2000/svg">
  <!-- Background circle with gradient -->
  <defs>
    <linearGradient id="logoGradient" x1="0%" y1="0%" x2="100%" y2="100%">
      <stop offset="0%" style="stop-color:#FF6B35;stop-opacity:1" />
      <stop offset="100%" style="stop-color:#F7B801;stop-opacity:1" />
    </linearGradient>
    <linearGradient id="textGradient" x1="0%" y1="0%" x2="100%" y2="0%">
      <stop offset="0%" style="stop-color:#FF6B35;stop-opacity:1" />
      <stop offset="100%" style="stop-color:#F7B801;stop-opacity:1" />
    </linearGradient>
  </defs>
  
  <!-- Logo Icon - Compass/Airplane combination -->
  <g transform="translate(5, 5)">
    <!-- Outer circle -->
    <circle cx="25" cy="25" r="24" fill="url(#logoGradient)" opacity="0.1"/>
    <circle cx="25" cy="25" r="24" fill="none" stroke="url(#logoGradient)" stroke-width="2"/>
    
    <!-- Inner compass points -->
    <path d="M 25 8 L 25 12" stroke="url(#logoGradient)" stroke-width="2" stroke-linecap="round"/>
    <path d="M 25 38 L 25 42" stroke="url(#logoGradient)" stroke-width="2" stroke-linecap="round"/>
    <path d="M 8 25 L 12 25" stroke="url(#logoGradient)" stroke-width="2" stroke-linecap="round"/>
    <path d="M 38 25 L 42 25" stroke="url(#logoGradient)" stroke-width="2" stroke-linecap="round"/>
    
    <!-- Airplane icon in center -->
    <g transform="translate(25, 25)">
      <path d="M -8 2 L -2 0 L -8 -2 L -6 0 Z" fill="#FF6B35"/>
      <path d="M -2 0 L 8 -3 L 10 -2 L 2 0 L 10 2 L 8 3 Z" fill="url(#logoGradient)"/>
      <circle cx="0" cy="0" r="2" fill="#F7B801"/>
    </g>
    
    <!-- Decorative dots -->
    <circle cx="25" cy="10" r="1.5" fill="#F7B801"/>
    <circle cx="40" cy="25" r="1.5" fill="#FF6B35"/>
    <circle cx="25" cy="40" r="1.5" fill="#F7B801"/>
    <circle cx="10" cy="25" r="1.5" fill="#FF6B35"/>
  </g>
  
  <!-- Text: Travel -->
  <text x="60" y="35" font-family="'Playfair Display', serif" font-size="24" font-weight="800" fill="url(#textGradient)">Travel</text>
  
  <!-- Text: Go -->
  <text x="140" y="35" font-family="'Playfair Display', serif" font-size="24" font-weight="800" fill="#004E89">Go</text>
  
  <!-- Tagline -->
  <text x="60" y="48" font-family="'Poppins', sans-serif" font-size="8" font-weight="500" fill="#6B7280" letter-spacing="1">YOUR MODERN TRAVEL PARTNER</text>
</svg>
